{"title":"Office.2015.BRRip.720p.x264.AAC-PRiSTiNE [P2PDL]","uid":13153203,"size":799172224,"categoryP":"video","categoryS":"hd___movies","magnet":"?xt=urn:btih:8299aa060416c1bc4878e703dd4b8ccef1ecce72&amp;dn=Office.2015.BRRip.720p.x264.AAC-PRiSTiNE+%5BP2PDL%5D&amp;tr=udp%3A%2F%2Ftracker.leechers-paradise.org%3A6969&amp;tr=udp%3A%2F%2Fzer0day.ch%3A1337&amp;tr=udp%3A%2F%2Fopen.demonii.com%3A1337&amp;tr=udp%3A%2F%2Ftracker.coppersurfer.tk%3A6969&amp;tr=udp%3A%2F%2Fexodus.desync.com%3A6969","seeders":1,"leechers":0,"uploader":"VYTOP2PDL","files":7,"time":1452080945,"description":"____    ____ ____    ____ .___________.  ______   \r\n     /   /      /   / |           | /  __    \r\n    /   /      /   /  `---|  |----`|  |  |  | \r\n        /     _    _/       |  |     |  |  |  | \r\n       /        |  |         |  |     |  `--'  | \r\n    __/         |__|         |__|      ______/  \r\n                                                  \r\nPresenting Small Encodes with quality for years!\r\n                                                                                                   \r\n                                                                                                   \r\n\r\nOffice.2015.BRRip.720p.x264.AAC-PRiSTiNE\r\n\r\n\r\nGenre: Comedy, Musical, Romance \nhttp://www.imdb.com/title/tt4392726/\r\n\r\n\r\nFormat                                   : MPEG-4\r\nFile size                                : 751 MiB\r\nDuration                                 : 1h 59mn\r\nOverall bit rate                         : 880 Kbps\r\n\r\nVideo\r\nFormat                                   : AVC\r\nBit rate                                 : 798 Kbps\r\nWidth                                    : 1 280 pixels\r\nHeight                                   : 528 pixels\r\nDisplay aspect ratio                     : 2.40:1\r\nFrame rate mode                          : Constant\r\nFrame rate                               : 23.976 fps\r\nBit depth                                : 8 bits\r\nStream size                              : 680 MiB (91%)\r\nWriting library                          : x264\r\n\r\nAudio\r\nFormat                                   : AAC\r\nBit rate mode                            : Variable\r\nBit rate                                 : 79.4 Kbps\r\nChannel(s)                               : 2 channels\r\nChannel positions                        : Front: L R\r\nSampling rate                            : 48.0 KHz\r\nStream size                              : 67.8 MiB (9%)\r\nLanguage                                 : Chinese\r\n\r\nSubtitle                                 : Yes (English)\r\n\r\nScreen Shots: (Click to view)\r\n \nhttp://ititli.com/pC \nhttp://ititli.com/pF \nhttp://ititli.com/pJ \nhttp://ititli.com/p5 \nhttp://ititli.com/pB \nhttp://ititli.com/pN \nhttp://ititli.com/pP \nhttp://ititli.com/pf \nhttp://ititli.com/pu\r\n\r\n----------------------------------------------------------------------------------------------------\r\n\r\n\r\nEncoder Notes: Looking For Early Access To Anything You Can Provide WEBDL, DVDScr, DVDR, BluRay,\r\nDirect Audio, Music Releases and Seedboxes. If You Got anything to offer please contact us.\r\n\r\nSupport us by donating BC - 1FgwdzPsd1y25Gea8wP1qni35uGCtmkRCD\r\n\r\nSend some love!\r\nFind us and join us!","torrent":{"xt":"urn:btih:8299aa060416c1bc4878e703dd4b8ccef1ecce72","amp;dn":"Office.2015.BRRip.720p.x264.AAC-PRiSTiNE+%5BP2PDL%5D","amp;tr":["udp%3A%2F%2Ftracker.leechers-paradise.org%3A6969","udp%3A%2F%2Fzer0day.ch%3A1337","udp%3A%2F%2Fopen.demonii.com%3A1337","udp%3A%2F%2Ftracker.coppersurfer.tk%3A6969","udp%3A%2F%2Fexodus.desync.com%3A6969"],"infoHash":"8299aa060416c1bc4878e703dd4b8ccef1ecce72","infoHashBuffer":{"type":"Buffer","data":[130,153,170,6,4,22,193,188,72,120,231,3,221,75,140,206,241,236,206,114]},"announce":[],"urlList":[]}}